# xmcd
#
# Track frame offsets:
#	182
#	13902
#	27067
#	43835
#	56457
#	72710
#	87062
#	101742
#	114260
#	126137
#	138645
#
# Disc length: 1977 seconds
# Revision: 1
# Processed by: cddbd v1.5.2PL0 Copyright (c) Steve Scherf et al.
# Submitted via: dBpowerAMP V12.0
#
DISCID=9707b70b
DTITLE=Dave Durham and the Bull Durham Band - Dave Durham and the Fabulous Bull Durham Band
DYEAR=1993
DGENRE=Country
TTITLE0=I Killed the Mailbox
TTITLE1=Gasoline
TTITLE2=I'm Still Trying
TTITLE3=Life of the Party
TTITLE4=Without Words
TTITLE5=You're Gonna Get It
TTITLE6=Are You Good
TTITLE7=In Front of My Heart
TTITLE8=Peggy Lou
TTITLE9=Belly Rubbin' Lovin'
TTITLE10=It's Not the Fall
EXTD=
EXTT0=
EXTT1=
EXTT2=
EXTT3=
EXTT4=
EXTT5=
EXTT6=
EXTT7=
EXTT8=
EXTT9=
EXTT10=
PLAYORDER=
